<?xml version="1.0" standalone="no"?>
<!DOCTYPE svg PUBLIC "-//W3C//DTD SVG 20010904//EN"
 "http://www.w3.org/TR/2001/REC-SVG-20010904/DTD/svg10.dtd">
<svg version="1.0" xmlns="http://www.w3.org/2000/svg"
 width="300.000000pt" height="400.000000pt" viewBox="0 0 300.000000 400.000000"
 preserveAspectRatio="xMidYMid meet">
<metadata>
Created by potrace 1.10, written by Peter Selinger 2001-2011
</metadata>
<g transform="translate(0.000000,400.000000) scale(0.100000,-0.100000)"
fill="#000000" stroke="none">
<path d="M1209 3422 c-80 -51 -120 -113 -161 -251 -25 -85 -35 -277 -19 -363
37 -188 161 -314 376 -381 169 -52 267 -57 352 -16 l43 21 52 -25 c29 -14 78
-32 108 -41 l56 -16 -1 -220 c0 -139 -4 -220 -10 -221 -25 -3 -66 3 -130 20
l-69 17 -18 77 c-20 88 -59 172 -87 187 -50 26 -101 -3 -101 -58 0 -63 50
-132 139 -189 l54 -35 -6 -139 c-3 -76 -1 -139 3 -139 11 0 24 180 17 231 -6
47 -8 46 108 19 117 -27 128 -21 119 64 -4 35 -3 134 1 221 6 139 9 156 24
149 37 -16 64 -17 59 -3 -2 8 -18 15 -34 17 -16 2 -33 8 -38 12 -5 5 -8 57 -7
115 1 67 -2 105 -9 105 -12 0 -12 -1 -12 -117 0 -51 -3 -93 -6 -93 -16 0 -159
53 -176 66 -19 14 -19 14 2 36 38 42 62 108 61 178 0 108 -45 196 -117 226
-53 22 -121 4 -163 -44 -30 -34 -31 -38 -27 -106 6 -91 31 -139 115 -223 49
-49 62 -68 52 -74 -19 -12 -104 -29 -142 -29 -60 0 -268 59 -338 96 -115 61
-200 172 -230 300 -16 70 -14 237 5 320 54 249 166 350 342 309 36 -8 76 -22
90 -31 13 -9 27 -14 30 -11 3 3 -5 12 -18 20 -42 28 -118 47 -181 47 -52 0
-71 -5 -108 -28z m578 -571 c81 -50 118 -205 73 -308 -27 -63 -51 -87 -79 -78
-35 11 -138 132 -155 182 -22 63 -21 145 2 172 16 21 81 50 112 51 8 0 29 -9
47 -19z m-91 -668 c25 -26 71 -131 79 -182 l7 -43 -32 18 c-89 51 -146 146
-121 201 13 27 43 30 67 6z"/>
<path d="M1442 2368 c3 -7 23 -26 46 -41 69 -46 50 -60 -43 -32 -27 8 -51 12
-53 10 -10 -9 11 -23 43 -29 39 -8 95 -50 95 -73 0 -13 -9 -15 -52 -9 -29 3
-66 9 -82 12 -19 5 -27 3 -22 -4 3 -6 21 -14 39 -17 63 -14 138 -68 119 -87
-14 -14 -117 -22 -149 -11 -15 6 -34 8 -40 6 -15 -5 -17 -39 -3 -48 21 -13 8
-31 -48 -67 -64 -41 -72 -44 -72 -25 -1 22 -175 254 -215 285 -38 30 -79 28
-104 -4 -26 -33 -27 -101 -6 -259 36 -259 31 -556 -15 -905 -29 -224 -40 -332
-34 -342 9 -14 26 -9 20 7 -6 18 12 188 45 425 29 204 32 619 6 805 -29 206
-21 275 32 275 36 0 70 -33 166 -165 102 -141 102 -140 76 -185 -29 -51 -41
-155 -37 -301 8 -228 64 -422 151 -518 30 -33 33 -40 20 -51 -23 -19 -18 -54
13 -82 37 -35 68 -50 132 -63 l55 -11 -2 -242 c-2 -134 1 -241 6 -238 5 3 9
110 10 237 0 128 3 234 5 236 2 2 66 -7 142 -21 174 -31 274 -42 274 -28 0 5
-33 13 -72 16 -78 8 -210 29 -295 48 -49 10 -53 13 -53 40 l0 28 53 -6 c106
-13 157 51 106 132 -25 41 -47 54 -108 63 -45 6 -46 7 -49 46 -1 22 -5 55 -8
73 -5 31 -7 32 -37 27 -39 -6 -119 35 -151 77 l-20 28 24 25 c26 28 56 32 85
11 39 -27 166 -66 301 -92 123 -23 146 -25 212 -16 87 12 100 21 84 56 -23 51
-160 96 -293 96 -37 0 -102 5 -142 11 -63 9 -84 8 -131 -5 -31 -9 -61 -14 -67
-10 -25 15 -69 89 -69 116 0 25 3 28 34 28 26 0 40 -7 56 -27 56 -71 161 -88
233 -36 64 45 80 83 73 180 -5 89 -48 210 -92 262 -21 25 -78 59 -129 77 -17
6 -14 8 18 16 47 12 49 38 6 70 -30 23 -30 23 -7 28 30 7 35 41 8 65 -25 23
-26 35 0 35 39 0 21 36 -42 83 -40 30 -52 33 -46 15z m-32 -308 l25 -7 -29
-12 c-21 -9 -32 -9 -42 0 -31 26 -8 36 46 19z m137 -41 c86 -42 147 -156 159
-296 8 -93 -4 -126 -63 -170 -51 -39 -124 -39 -182 1 -23 16 -41 33 -41 37 0
5 28 9 63 9 87 0 110 28 67 83 -18 22 -19 29 -8 46 11 17 9 24 -12 47 -14 14
-42 33 -62 41 -21 8 -38 18 -38 22 0 7 66 61 75 61 3 0 19 -10 35 -22 23 -17
33 -19 42 -10 21 21 -22 67 -64 67 -26 0 -46 9 -76 35 -22 19 -41 40 -41 47
-2 28 90 29 146 2z m-92 -82 l30 -27 -30 -25 c-37 -30 -50 -31 -69 -3 -16 22
-22 99 -9 111 3 4 16 -1 27 -11 12 -10 35 -31 51 -45z m-105 9 c0 -59 32 -104
98 -137 48 -24 81 -53 82 -71 0 -14 -60 -8 -115 11 -32 11 -57 15 -61 10 -3
-5 1 -11 8 -13 166 -54 188 -67 188 -106 0 -19 -5 -21 -77 -18 l-77 3 -78 145
c-79 144 -79 145 -58 160 12 8 33 25 48 37 38 31 42 29 42 -21z m-89 -108 c17
-35 49 -93 70 -130 44 -75 47 -88 21 -88 -25 0 -42 -20 -42 -50 0 -22 14 -49
52 -102 10 -13 6 -21 -21 -44 -26 -22 -31 -32 -26 -53 4 -14 14 -35 23 -45 22
-24 130 -76 160 -76 20 0 22 -4 22 -60 0 -56 -2 -60 -22 -60 -30 0 -128 -46
-128 -60 0 -22 -30 -8 -64 31 -39 47 -75 132 -107 259 -31 118 -34 419 -6 493
10 26 23 47 28 47 5 0 23 -28 40 -62z m489 -398 c69 -4 140 -13 159 -19 41
-13 111 -57 111 -71 0 -32 -184 -33 -325 -1 -123 27 -256 73 -252 86 6 16 58
24 122 19 33 -3 116 -9 185 -14z m-133 -335 c35 -7 67 -43 78 -87 10 -38 -23
-68 -76 -68 -69 0 -79 11 -79 89 0 72 4 84 29 77 9 -3 31 -7 48 -11z m-94 -62
c-2 -78 -1 -78 -95 -36 -32 14 -58 31 -58 38 0 17 96 65 130 65 26 0 26 -1 23
-67z m-40 -78 c33 -9 43 -17 45 -36 1 -13 -1 -29 -6 -36 -16 -26 -160 27 -186
69 -7 12 -6 24 2 43 l12 26 45 -27 c25 -14 65 -32 88 -39z"/>
</g>
</svg>
